PathFileType  4	(X/Y/Z) C:\Users\antoi\Documents\MyRepositories\mobilecap\ResultsAnalysis
DataRate	CameraRate	NumFrames	NumMarkers	Units	OrigDataRate	OrigDataStartFrame	OrigNumFrames
100.0	100.0	4	51	mm	100.0	105	139
Frame#	Time	r_knee			r_shank_antsup			r_ankle			r_calc			r_5meta			r_toe			L_knee			L_shank_antsup			L_ankle			L_calc			L_5meta			L_toe			r_sh2			r_sh3			r_sh4			L_sh2			L_sh3			r_thigh1			r_thigh2			r_thigh3			r_thigh4			r_thigh5			L_thigh1			L_thigh2			L_thigh3			L_thigh4			r.ASIS			r.PSIS			L.ASIS			L.PSIS			C7			R_Shoulder			L_Shoulder			R_Sternum			L_Sternum			R_humerus			R_elbow_med			R_elbow_lat			R_forearm			R_wrist_radius			R_wrist_ulna			L_humerus			L_elbow_med			L_elbow_lat			L_forearm			L_wrist_radius			L_wrist_ulna			R_HJC			L_HJC			R_HJC_reg			L_HJC_reg			
		X1	Y1	Z1	X2	Y2	Z2	X3	Y3	Z3	X4	Y4	Z4	X5	Y5	Z5	X6	Y6	Z6	X7	Y7	Z7	X8	Y8	Z8	X9	Y9	Z9	X10	Y10	Z10	X11	Y11	Z11	X12	Y12	Z12	X13	Y13	Z13	X14	Y14	Z14	X15	Y15	Z15	X16	Y16	Z16	X17	Y17	Z17	X18	Y18	Z18	X19	Y19	Z19	X20	Y20	Z20	X21	Y21	Z21	X22	Y22	Z22	X23	Y23	Z23	X24	Y24	Z24	X25	Y25	Z25	X26	Y26	Z26	X27	Y27	Z27	X28	Y28	Z28	X29	Y29	Z29	X30	Y30	Z30	X31	Y31	Z31	X32	Y32	Z32	X33	Y33	Z33	X34	Y34	Z34	X35	Y35	Z35	X36	Y36	Z36	X37	Y37	Z37	X38	Y38	Z38	X39	Y39	Z39	X40	Y40	Z40	X41	Y41	Z41	X42	Y42	Z42	X43	Y43	Z43	X44	Y44	Z44	X45	Y45	Z45	X46	Y46	Z46	X47	Y47	Z47	X48	Y48	Z48	X49	Y49	Z49	X50	Y50	Z50	X51	Y51	Z51	

105	1.04000000	1187.74173	515.03291	-135.44329	1246.31045	438.30075	-138.19085	1268.16942	110.92337	-161.72546	1228.51096	61.99559	-220.78478	1392.24798	95.05914	-108.48513	1417.82716	141.54944	-154.95216	940.84217	496.72747	-400.28039	955.02921	405.44481	-384.34162	811.49482	101.35656	-353.85971	732.89240	65.96033	-304.69142	907.91147	37.20798	-389.84519	958.11667	60.53252	-333.07585	1269.84758	327.77558	-143.87841	1179.34238	421.04373	-105.32116	1196.80192	307.95814	-107.71752	878.92503	435.96482	-423.67315	842.12715	321.04570	-421.38837	1121.51072	788.09785	-116.10985	1173.32417	691.73364	-130.56848	1141.27555	642.58492	-92.82811	1027.65914	732.96794	-85.97457	1086.55113	635.23364	-107.06640	1060.96982	730.72465	-426.52409	1050.60567	594.36238	-396.05225	959.42425	729.74772	-467.44723	946.17056	602.01609	-427.42712	1094.79918	962.91782	-156.12069	891.44375	983.84510	-231.85685	1095.16410	959.26959	-410.23770	893.51567	991.31750	-324.64882	935.71329	1450.00928	-294.28846	976.97967	1423.62506	-123.37299	1031.82584	1421.80242	-432.77899	1059.40924	1379.39245	-252.34162	1061.33266	1380.16317	-299.00194	982.21006	1293.50338	-60.84164	896.71834	1101.85888	-130.54156	879.60669	1115.30219	-65.09595	906.77098	1046.67093	-22.47936	928.48262	873.62883	-26.24541	883.30830	885.17061	-4.88596	1092.50813	1299.81390	-483.29431	1076.99889	1088.72981	-454.18562	1110.25186	1109.42855	-523.90279	1183.72049	1087.82423	-513.56312	1311.42778	975.93444	-458.49483	1291.47724	957.91492	-501.44471	1017.49700	871.49171	-179.07572	1016.13180	872.27003	-368.63168	1027.92155	871.48169	-200.41057	1031.65992	884.94101	-367.56377	
106	1.05000000	1198.40087	511.78540	-135.87629	1259.44004	437.32527	-139.12367	1293.91190	110.83912	-162.95641	1255.47056	60.18470	-221.54456	1419.14576	99.98734	-111.08249	1442.51116	147.42079	-157.75579	946.77172	495.95277	-399.92747	959.77782	404.43846	-384.08004	812.09224	102.25621	-353.37857	733.35007	67.26699	-304.37940	907.95747	37.19425	-389.81933	958.41468	60.20143	-333.17592	1287.08435	327.74365	-145.13199	1193.45083	417.66616	-105.58485	1215.13599	305.20995	-108.39630	884.04589	436.04241	-423.09657	845.33952	321.66876	-420.68836	1133.53252	785.07595	-116.85747	1184.59141	688.31864	-131.74072	1152.54657	639.37862	-93.48601	1039.63128	730.58926	-85.74865	1097.65476	632.39578	-107.28811	1069.92379	728.57487	-426.74717	1058.22515	592.30016	-396.35408	968.11048	728.82797	-466.91143	953.48141	601.22960	-426.69601	1107.54576	960.50599	-156.13234	903.76473	981.24123	-230.73477	1106.57027	956.86399	-410.33272	905.30370	989.04798	-323.43494	947.94514	1447.64734	-293.89667	989.43027	1421.36412	-123.05010	1043.80172	1419.16647	-432.66829	1071.76622	1376.90217	-252.14231	1073.44375	1377.59943	-298.81638	994.19573	1291.21617	-60.50119	907.99127	1099.87190	-130.11995	890.66158	1113.52283	-64.77402	917.27207	1044.83781	-21.92329	938.06786	871.65774	-25.35357	892.90684	883.46612	-4.20973	1104.59480	1297.30069	-483.07008	1090.66191	1086.24964	-453.93984	1123.85319	1107.41866	-523.64163	1197.56569	1086.93846	-512.95098	1327.15653	977.92871	-456.58071	1307.80817	959.32467	-499.55765	1030.15347	869.02343	-178.70569	1027.71507	869.89419	-368.24951	1040.64943	868.59230	-200.39663	1043.42755	882.67181	-367.57101	
107	1.06000000	1209.23642	508.65880	-136.27058	1272.48880	436.18822	-140.25116	1317.31978	110.81828	-164.37806	1279.99436	58.58962	-222.63098	1443.44247	104.23126	-113.84505	1464.82725	152.33168	-160.70896	953.05657	495.18920	-399.62675	964.88284	403.41311	-383.86156	812.76976	103.32791	-352.99933	733.90737	68.85580	-304.11007	908.02796	37.16239	-389.79701	958.75788	59.84308	-333.26612	1303.56759	327.50171	-146.58683	1207.59474	414.60366	-105.89065	1232.76853	302.72224	-109.08989	889.56986	436.18068	-422.58205	848.94844	322.37349	-420.11423	1145.79214	782.13581	-117.36077	1196.08044	684.97317	-132.59985	1163.90448	636.28030	-94.08424	1051.72957	728.28623	-85.64678	1108.90196	629.73511	-107.50180	1079.10037	726.43884	-426.99229	1066.04191	590.21554	-396.72475	977.02064	727.93328	-466.32590	961.10926	600.43470	-425.97413	1120.41821	958.01897	-156.06557	916.21289	978.54487	-229.58619	1118.19076	954.44509	-410.36539	917.24933	986.73036	-322.15267	960.17053	1445.21752	-293.41819	1001.85748	1419.02214	-122.63896	1055.79708	1416.46810	-432.49922	1084.15287	1374.37763	-251.84525	1085.60254	1375.01887	-298.53877	1006.30050	1288.83586	-60.08938	919.47439	1097.72867	-129.57395	901.97237	1111.57712	-64.31516	928.07912	1042.86225	-21.24387	948.02302	869.56909	-24.34375	902.87942	881.61489	-3.40147	1116.63265	1294.65329	-482.73354	1104.07825	1083.63516	-453.65777	1137.23340	1105.26167	-523.29986	1211.12770	1085.80793	-512.30987	1342.37857	979.48265	-454.76834	1323.63719	960.38271	-497.76777	1042.95413	866.47258	-178.30361	1039.48860	867.48928	-367.82976	1053.53662	865.59225	-200.38150	1055.40725	880.38010	-367.57504	
108	1.07000000	1220.38776	505.72107	-136.66645	1285.51852	434.85505	-141.54215	1338.22234	110.57760	-166.01193	1301.91636	56.97974	-224.07894	1465.06984	107.40382	-116.79943	1484.72062	156.00992	-163.79993	959.77064	494.44299	-399.38980	970.39683	402.36851	-383.69179	813.54574	104.58712	-352.76809	734.57410	70.74901	-303.89591	908.13364	37.11627	-389.79555	959.13916	59.44630	-333.35626	1319.25793	326.92869	-148.21861	1221.75844	411.85279	-106.26007	1249.59075	300.42218	-109.81399	895.56342	436.38706	-422.15788	853.02321	323.17592	-419.69474	1158.32524	779.31926	-117.58787	1207.85285	681.75469	-133.14440	1175.49317	633.36363	-94.59138	1064.01349	726.06917	-85.60334	1120.40649	627.25359	-107.65861	1088.53939	724.32115	-427.21784	1074.12467	588.14129	-397.13087	986.22488	727.06648	-465.69923	969.12355	599.63958	-425.28265	1133.40279	955.50776	-155.90752	928.81148	975.81888	-228.42043	1130.04490	952.07741	-410.33525	929.38022	984.39265	-320.81096	972.39158	1442.76391	-292.85226	1014.25389	1416.62553	-122.13750	1067.82303	1413.76595	-432.25775	1096.55930	1371.85857	-251.45175	1097.81854	1372.46629	-298.16590	1018.49833	1286.40272	-59.59253	931.16854	1095.45991	-128.90742	913.54447	1109.49184	-63.72230	939.20536	1040.76912	-20.44653	958.36359	867.38926	-23.22331	913.23251	879.64218	-2.46569	1128.62604	1291.94368	-482.29242	1117.22113	1080.95338	-453.33388	1150.36310	1102.99683	-522.87331	1224.39097	1084.46379	-511.63085	1357.06982	980.59466	-453.07344	1338.91609	961.07436	-496.08131	1055.90771	863.89124	-177.86824	1051.47978	865.10833	-367.37278	1066.57008	862.57945	-200.32358	1067.59513	878.10233	-367.54834	
